<?xml version="1.0" standalone="no"?>
<!DOCTYPE svg PUBLIC "-//W3C//DTD SVG 20010904//EN"
 "http://www.w3.org/TR/2001/REC-SVG-20010904/DTD/svg10.dtd">
<svg version="1.0" xmlns="http://www.w3.org/2000/svg"
 width="250.000000pt" height="250.000000pt" viewBox="0 0 250.000000 250.000000"
 preserveAspectRatio="xMidYMid meet">
<metadata>
Created by potrace 1.16, written by Peter Selinger 2001-2019
</metadata>
<g transform="translate(0.000000,250.000000) scale(0.100000,-0.100000)"
fill="#000000" stroke="none">
<path d="M1000 2480 c-120 -25 -200 -53 -316 -111 -184 -92 -361 -247 -476
-419 l-50 -75 546 -3 c300 -1 792 -1 1092 0 l546 3 -50 75 c-184 274 -485 472
-813 535 -115 21 -368 19 -479 -5z"/>
<path d="M885 1569 c1 -25 9 -45 21 -54 17 -13 18 -14 2 -15 -10 0 -18 5 -18
10 0 6 -7 10 -15 10 -8 0 -15 -4 -15 -10 0 -5 -8 -10 -17 -10 -16 1 -16 2 1
15 12 9 20 28 20 48 l2 33 -53 -15 c-29 -8 -53 -17 -53 -21 0 -4 -19 -5 -43
-3 -36 4 -48 1 -68 -18 -31 -31 -34 -49 -8 -42 18 5 20 2 15 -14 -5 -16 0 -22
28 -30 20 -6 52 -7 77 -3 23 4 49 6 56 3 7 -3 20 0 28 7 8 7 15 8 15 3 0 -5 7
-10 15 -10 8 0 15 5 15 10 0 6 5 5 13 -1 6 -5 31 -10 55 -10 62 -1 86 -10 71
-28 -7 -8 -7 -14 -1 -14 16 0 22 26 9 40 -9 10 -9 11 1 6 16 -9 62 1 62 13 0
5 -9 7 -20 4 -12 -3 -20 0 -20 7 0 7 7 10 15 7 8 -4 17 -2 21 4 3 6 12 8 20 5
21 -8 17 12 -7 37 -15 17 -31 22 -70 22 -27 0 -49 3 -49 7 0 4 -18 11 -41 14
-22 4 -46 13 -53 20 -11 10 -13 6 -11 -27z"/>
<path d="M745 1400 c-11 -5 -14 -9 -7 -9 6 -1 12 -5 12 -11 0 -6 -28 -10 -65
-10 l-65 0 0 -78 0 -79 -53 5 c-55 4 -121 -9 -151 -31 -17 -13 -17 -15 -2 -45
20 -38 46 -43 46 -8 0 22 6 26 45 32 25 3 61 3 80 0 32 -6 35 -10 35 -41 0
-25 4 -35 16 -35 13 0 15 -17 13 -116 -1 -101 1 -118 17 -135 19 -18 19 -15
16 116 -3 119 -1 135 13 135 14 0 16 -17 13 -140 -3 -138 -1 -150 30 -150 4 0
6 65 4 145 -2 97 0 145 7 145 7 0 11 -49 11 -140 0 -133 1 -140 20 -140 19 0
20 7 20 123 0 84 3 117 10 107 6 -8 10 -61 9 -116 -1 -56 1 -106 5 -112 9 -14
52 -20 89 -12 l32 8 -32 1 c-22 1 -31 5 -27 14 2 7 -4 22 -16 32 -16 15 -20
30 -20 82 0 35 4 63 10 63 6 0 10 -20 10 -45 0 -80 40 -132 112 -145 33 -6 51
-4 80 11 56 28 68 61 68 179 l0 100 -83 0 c-83 0 -83 0 -94 30 -6 16 -25 38
-42 47 -31 18 -31 18 -31 106 l0 87 51 0 c28 0 60 5 72 12 21 11 21 11 2 19
-27 10 -235 10 -260 -1z m348 -410 c-1 -41 -3 -82 -5 -91 -11 -50 -103 -74
-145 -39 -13 10 -23 21 -23 24 0 8 58 66 66 66 10 0 -16 -38 -31 -44 -32 -12
-16 -37 30 -44 6 -1 10 16 11 38 0 49 27 82 60 74 21 -5 23 -3 21 32 -3 36 -5
39 -35 41 -28 2 -32 0 -32 -23 0 -16 -4 -23 -11 -18 -6 3 -8 15 -6 26 5 16 2
19 -14 15 -11 -3 -19 0 -19 7 0 8 22 12 67 11 l67 0 -1 -75z"/>
<path d="M182 589 c35 -62 139 -188 211 -256 174 -162 393 -273 630 -318 104
-20 350 -20 454 0 237 45 456 156 630 318 72 68 176 194 211 256 l23 41 -1091
0 -1091 0 23 -41z"/>
</g>
</svg>
