<svg version="1.0" xmlns="http://www.w3.org/2000/svg"
 width="512.000000pt" height="512.000000pt" viewBox="0 0 512.000000 512.000000"
 preserveAspectRatio="xMidYMid meet">

<g transform="translate(0.000000,512.000000) scale(0.100000,-0.100000)"
fill="#000000" stroke="none">
<path d="M2532 5007 c-21 -23 -22 -30 -22 -278 0 -254 0 -256 23 -277 30 -29
62 -28 92 3 l25 24 0 251 0 251 -25 24 c-30 31 -65 32 -93 2z"/>
<path d="M3794 4585 c-30 -21 -204 -327 -204 -359 0 -55 66 -85 108 -48 27 22
191 308 199 344 4 20 -1 33 -20 52 -30 29 -53 33 -83 11z"/>
<path d="M1370 4543 c-14 -17 -19 -35 -16 -50 8 -29 153 -281 179 -310 40 -44
117 -16 117 43 0 23 -143 285 -178 327 -24 27 -76 22 -102 -10z"/>
<path d="M2741 4004 c-33 -51 -64 -90 -78 -95 -14 -5 -70 -9 -127 -9 -111 0
-183 -10 -290 -42 -83 -24 -90 -22 -179 61 -35 34 -70 61 -77 61 -14 0 -187
-97 -194 -109 -3 -4 4 -45 14 -92 28 -121 27 -128 -26 -179 -72 -71 -161 -185
-205 -265 -22 -40 -47 -79 -56 -87 -10 -8 -55 -15 -122 -18 l-106 -5 -27 -95
c-15 -52 -27 -104 -27 -115 0 -14 22 -34 81 -70 45 -27 89 -62 97 -77 l16 -28
158 0 157 0 0 23 c0 51 42 187 84 272 104 211 295 363 531 426 110 29 289 29
396 1 160 -43 285 -118 400 -239 110 -117 182 -261 210 -417 l11 -66 160 0
161 0 -7 65 c-4 35 -18 103 -31 150 -14 47 -25 94 -25 105 0 10 32 53 70 94
39 42 70 80 70 85 0 10 -96 181 -108 193 -4 3 -45 -2 -92 -13 -133 -29 -127
-31 -239 74 -61 57 -135 114 -191 147 -51 30 -98 63 -106 74 -9 13 -14 47 -14
92 0 132 3 128 -114 158 -55 14 -106 26 -111 26 -6 0 -35 -39 -64 -86z"/>
<path d="M308 3753 c-55 -64 -38 -82 221 -232 236 -136 271 -149 304 -113 22
24 22 75 -1 95 -9 8 -115 72 -235 141 -223 129 -260 142 -289 109z"/>
<path d="M4540 3630 c-112 -65 -210 -126 -217 -136 -31 -43 1 -104 55 -104 26
0 408 212 441 245 8 8 14 28 14 46 0 36 -32 69 -67 69 -11 -1 -113 -54 -226
-120z"/>
<path d="M2468 3440 c-147 -23 -276 -89 -383 -195 -102 -103 -171 -233 -190
-358 l-7 -47 676 0 c372 0 676 4 676 8 0 5 -9 43 -19 84 -74 290 -319 491
-621 512 -41 2 -101 0 -132 -4z"/>
<path d="M1430 2664 c0 -50 19 -169 37 -234 34 -120 85 -203 224 -360 151
-172 222 -297 268 -475 25 -94 51 -281 51 -366 l0 -59 578 0 579 0 6 118 c15
280 82 504 205 683 28 41 87 121 131 179 87 112 139 210 164 305 19 71 39 224
31 236 -3 5 -494 9 -1140 9 l-1134 0 0 -36z m1342 -68 c87 -31 143 -64 211
-126 264 -241 264 -688 1 -929 -115 -105 -238 -154 -389 -155 -170 0 -297 53
-420 178 -118 120 -178 268 -178 441 0 259 151 488 384 582 119 48 268 51 391
9z"/>
<path d="M2495 2476 c-112 -27 -221 -106 -283 -204 -101 -158 -100 -377 2
-536 96 -151 277 -235 442 -207 310 55 479 405 335 697 -97 195 -301 298 -496
250z m147 -23 c11 -10 18 -30 18 -55 0 -33 4 -40 27 -49 142 -54 211 -259 87
-259 -34 0 -51 16 -86 79 -23 43 -79 66 -121 51 -43 -14 -67 -39 -67 -67 0
-35 32 -60 97 -73 136 -28 191 -62 229 -145 26 -56 29 -82 13 -139 -14 -50
-85 -121 -138 -137 -39 -11 -41 -14 -41 -50 0 -43 -27 -69 -71 -69 -35 0 -69
42 -69 84 0 27 -5 33 -45 49 -116 48 -188 221 -104 251 46 16 78 0 98 -48 11
-24 31 -52 45 -64 78 -61 222 -12 187 64 -15 33 -47 50 -121 64 -78 14 -124
37 -167 82 -56 59 -69 137 -34 214 20 43 82 101 119 110 17 5 22 13 22 39 0
69 75 111 122 68z"/>
<path d="M2021 837 c-37 -19 -48 -63 -24 -96 l20 -26 546 -3 c536 -2 547 -2
567 18 29 29 26 74 -6 99 -26 21 -36 21 -553 21 -397 0 -532 -3 -550 -13z"/>
<path d="M2150 520 c-28 -28 -27 -84 2 -104 19 -14 76 -16 420 -16 385 0 399
1 418 20 29 29 26 74 -6 99 -26 20 -37 21 -420 21 -381 0 -395 -1 -414 -20z"/>
<path d="M2325 205 c-14 -13 -25 -33 -25 -45 0 -11 11 -32 25 -45 l24 -25 221
0 c207 0 221 1 240 20 11 11 20 33 20 50 0 17 -9 39 -20 50 -19 19 -33 20
-240 20 l-221 0 -24 -25z"/>
</g>
</svg>
