<?xml version="1.0" encoding="utf-8"?>
<svg version="1.0" xmlns="http://www.w3.org/2000/svg" width="1000px" height="1000px" viewBox="18.14 72.559 385.58 394.789" xmlns:bx="https://boxy-svg.com" preserveAspectRatio="none"><defs><bx:export><bx:file format="svg" path="Sin título.svg"/></bx:export></defs><g transform="matrix(0.162398, 0, 0, -0.168273, -260.917175, 630.884033)" fill="#000000" stroke="none"><path d="M1950 2853 c-61 -69 -74 -113 -78 -260 -10 -356 125 -712 354 -933 70 -68 67 -60 -24 64 -98 135 -172 306 -218 502 -24 106 -27 139 -27 294 0 122 5 204 17 269 9 51 15 95 13 97 -2 3 -19 -12 -37 -33z"/><path d="M3810 2884 c1 -5 7 -38 16 -74 8 -36 17 -139 20 -230 7 -185 -6 -301 -51 -455 -35 -122 -141 -334 -209 -420 -84 -106 -86 -117 -6 -40 210 205 338 511 357 861 6 122 -4 188 -42 264 -22 43 -85 114 -85 94z"/><path d="M2515 2815 c-47 -46 -22 -129 42 -141 32 -6 40 -3 60 20 26 31 29 46 9 46 -7 0 -16 -9 -19 -20 -8 -29 -52 -26 -73 5 -21 32 -11 72 21 87 22 10 29 8 50 -12 31 -29 44 -20 21 15 -23 34 -77 35 -111 0z"/><path d="M2680 2760 c0 -64 3 -80 15 -80 12 0 15 16 15 80 0 64 -3 80 -15 80 -12 0 -15 -16 -15 -80z"/><path d="M2772 2828 c-7 -7 -12 -23 -12 -35 0 -19 10 -28 45 -43 53 -23 61 -50 15 -50 -18 0 -33 6 -36 15 -7 17 -34 21 -34 5 0 -5 10 -20 21 -31 38 -38 126 -7 117 41 -2 8 -23 25 -48 38 -25 12 -46 27 -48 32 -6 18 28 23 47 6 19 -17 41 -21 41 -8 0 33 -82 56 -108 30z"/><path d="M2942 2820 c-33 -31 -31 -102 4 -129 15 -12 36 -21 48 -21 30 0 66 27 66 51 0 25 -26 25 -33 -1 -3 -13 -14 -20 -29 -20 -34 0 -48 18 -48 62 0 52 30 69 71 39 33 -25 39 -26 39 -8 0 44 -80 62 -118 27z"/><path d="M3122 2820 c-32 -30 -30 -93 3 -125 64 -65 164 20 121 103 -24 47 -85 58 -124 22z m82 -13 c21 -15 24 -70 6 -92 -15 -18 -51 -20 -68 -3 -17 17 -15 74 4 92 19 19 35 20 58 3z"/><path d="M2294 2620 c-43 -17 -48 -114 -8 -145 32 -24 80 -19 103 11 38 48 20 62 -24 18 -24 -24 -28 -25 -48 -11 -28 18 -35 78 -12 101 22 21 42 20 62 -4 18 -21 43 -27 43 -10 0 6 -9 19 -20 30 -21 21 -60 25 -96 10z"/><path d="M2446 2608 c-8 -30 -8 -112 0 -132 9 -22 104 -23 104 -1 0 11 -11 15 -41 15 -36 0 -40 2 -37 23 2 18 10 23 41 25 48 4 48 20 0 24 -27 2 -39 8 -41 21 -3 14 4 17 37 17 30 0 41 4 41 15 0 11 -12 15 -49 15 -42 0 -49 -3 -55 -22z"/><path d="M2596 2598 c-4 -28 -3 -103 3 -130 0 -5 6 -8 11 -8 6 0 10 16 10 35 0 27 4 35 18 35 11 0 27 -14 38 -35 18 -34 44 -47 44 -22 0 7 -7 23 -16 35 -15 21 -15 25 0 41 35 39 1 81 -66 81 -34 0 -37 -3 -42 -32z m89 -18 c0 -10 -12 -16 -32 -18 -28 -3 -33 0 -33 18 0 18 5 21 33 18 20 -2 32 -8 32 -18z"/><path d="M2750 2615 c0 -9 9 -15 25 -15 24 0 25 -2 25 -70 0 -38 4 -70 9 -70 15 0 23 36 20 87 -3 42 -1 48 19 53 45 10 26 25 -35 28 -52 2 -63 0 -63 -13z"/><path d="M2914 2617 c-10 -27 1 -150 14 -155 9 -3 12 18 12 82 0 52 -4 86 -10 86 -6 0 -13 -6 -16 -13z"/><path d="M2984 2617 c-10 -26 1 -150 13 -154 7 -3 13 10 15 34 3 35 6 38 36 41 41 4 42 20 0 24 -22 2 -34 9 -36 21 -3 14 4 17 37 17 30 0 41 4 41 15 0 20 -98 22 -106 2z"/><path d="M3135 2618 c-10 -24 -1 -153 10 -153 13 0 19 145 6 158 -7 7 -12 5 -16 -5z"/><path d="M3204 2617 c-3 -8 -4 -45 -2 -83 l3 -69 53 -3 c42 -2 52 0 52 12 0 12 -11 16 -40 16 -36 0 -40 3 -40 25 0 23 4 25 40 25 22 0 40 5 40 10 0 6 -18 10 -40 10 -33 0 -40 3 -40 20 0 17 7 20 40 20 29 0 40 4 40 15 0 20 -98 22 -106 2z"/><path d="M3358 2624 c-5 -4 -8 -43 -8 -87 l0 -80 52 5 c38 4 57 12 70 28 24 30 24 92 -2 115 -20 18 -100 32 -112 19z m90 -36 c7 -7 12 -27 12 -45 0 -34 -21 -53 -59 -53 -19 0 -21 6 -21 55 0 54 1 55 28 55 15 0 33 -5 40 -12z"/><path d="M4006 2509 c-2 -19 -10 -79 -16 -134 -31 -279 -160 -565 -339 -758 -43 -46 -159 -142 -219 -182 -66 -44 -41 -42 43 4 222 120 369 278 495 532 106 213 130 437 60 544 l-18 28 -6 -34z"/><path d="M1755 2478 c-47 -101 -28 -256 55 -456 109 -259 304 -479 529 -591 34 -18 65 -31 67 -29 2 2 -31 29 -73 58 -304 218 -494 572 -529 988 -3 45 -11 82 -16 82 -5 0 -20 -24 -33 -52z"/><path d="M2265 2257 c-70 -32 -111 -115 -102 -205 12 -112 78 -167 194 -160 53 3 68 9 93 33 25 24 50 77 50 108 0 4 -13 7 -28 7 -25 0 -30 -6 -41 -41 -25 -83 -139 -89 -185 -9 -42 71 -18 198 42 222 60 24 127 5 139 -40 6 -26 50 -49 66 -33 14 14 -8 62 -43 96 -23 22 -40 28 -92 31 -41 3 -74 0 -93 -9z"/><path d="M2634 2256 c-65 -29 -112 -129 -99 -210 9 -53 26 -84 65 -121 29 -28 36 -30 110 -30 70 0 81 3 105 25 32 30 55 71 55 100 0 16 -6 20 -30 20 -22 0 -30 -5 -30 -17 0 -36 -38 -82 -73 -88 -83 -16 -137 42 -137 146 0 92 39 142 111 141 50 -1 74 -15 88 -51 12 -28 45 -46 63 -35 27 17 -17 95 -66 118 -41 19 -120 20 -162 2z"/><path d="M2930 2080 l0 -180 25 0 24 0 3 141 3 141 30 -51 c110 -185 142 -232 162 -237 51 -14 53 -8 53 186 l0 180 -30 0 -30 0 0 -137 0 -137 -40 65 c-22 35 -59 97 -82 136 -41 70 -45 73 -80 73 l-38 0 0 -180z"/><path d="M3370 2158 c-24 -57 -58 -138 -76 -180 l-32 -78 32 0 c28 0 33 4 46 43 l15 42 82 3 82 3 20 -46 c17 -39 24 -45 50 -45 17 0 31 4 31 9 0 5 -14 42 -32 82 -17 41 -48 117 -68 169 -35 94 -36 95 -72 98 l-35 3 -43 -103z m104 -36 c14 -37 26 -71 26 -75 0 -4 -27 -7 -60 -7 -33 0 -60 2 -60 4 0 2 11 28 23 57 13 30 27 62 30 72 4 9 8 17 11 17 2 0 16 -30 30 -68z"/></g></svg>