<?xml version="1.0" encoding="UTF-8"?>
<svg version="1.1" xmlns="http://www.w3.org/2000/svg" width="512" height="512">
<path d="M0 0 C0.67585648 -0.00671722 1.35171295 -0.01343445 2.04804993 -0.02035522 C4.26225323 -0.03921034 6.4761513 -0.04325328 8.69042969 -0.04541016 C10.24591186 -0.05184773 11.80139284 -0.05857679 13.35687256 -0.06558228 C16.61147871 -0.07752457 19.86597897 -0.08126635 23.12060547 -0.08007812 C27.26395199 -0.07987533 31.40660957 -0.10714945 35.54979324 -0.14162254 C38.76199376 -0.1640086 41.97403169 -0.16791208 45.18630219 -0.16685867 C46.71233234 -0.16919814 48.23836813 -0.17792693 49.76432037 -0.19352341 C60.55064094 -0.2934337 71.44288241 0.08236767 79.59667969 8.07958984 C80.41201172 8.86624023 81.22734375 9.65289062 82.06738281 10.46337891 C82.98970703 11.39633789 83.91203125 12.32929688 84.86230469 13.29052734 C86.02798385 14.45460135 87.19402339 15.61831455 88.36035156 16.78173828 C92.97941513 21.40990801 97.57052478 26.06564612 102.14160156 30.74121094 C104.10943526 32.75143021 106.08665184 34.75202559 108.06542969 36.75146484 C108.65930481 37.36396088 109.25317993 37.97645691 109.86505127 38.60751343 C110.43294373 39.17886017 111.00083618 39.75020691 111.5859375 40.33886719 C112.07539856 40.83800629 112.56485962 41.33714539 113.06915283 41.85140991 C119.14747736 46.72964862 124.65066651 46.71877883 132.125 46.67529297 C133.25098099 46.68066574 134.37696198 46.68603851 135.5370636 46.6915741 C137.97767676 46.70134365 140.41832462 46.70429875 142.85895538 46.70121765 C146.72691878 46.69673506 150.59442575 46.71075443 154.46234131 46.72961426 C162.67899024 46.76638877 170.89558589 46.78024989 179.11230469 46.79052734 C188.62227594 46.80243699 198.13199053 46.82424898 207.64186859 46.87052917 C211.44291495 46.88406365 215.24367791 46.87993426 219.04473877 46.87512207 C221.39050655 46.88446776 223.73627123 46.89463785 226.08203125 46.90576172 C227.13068863 46.89961349 228.17934601 46.89346527 229.25978088 46.88713074 C240.24759423 46.9782136 248.93583685 49.45804925 256.86230469 57.29052734 C264.32790977 66.39492379 264.15918503 76.53742056 264.13696289 87.80957031 C264.14131604 89.2723415 264.14650119 90.73511041 264.15245056 92.19787598 C264.16578738 96.15251893 264.16642516 100.107066 264.16388726 104.06172705 C264.16281388 107.37165085 264.16771032 110.68155554 264.17249268 113.99147522 C264.1835696 121.80487837 264.18403559 129.61823343 264.17797852 137.43164062 C264.1719404 145.47281193 264.18424975 153.51380819 264.20554858 161.55494964 C264.22320335 168.47666498 264.22915982 175.3983248 264.22591084 182.3200618 C264.22410392 186.44620982 264.22667473 190.57223296 264.24062538 194.69836044 C264.25326231 198.5808591 264.25120467 202.46308624 264.23821449 206.34558105 C264.23586182 207.76366394 264.23853601 209.18176628 264.24683762 210.59982681 C264.30137314 220.64635767 263.8630061 230.47031007 257.44824219 238.69287109 C250.96352539 245.22550452 243.76335324 248.49910513 234.66789418 248.57200044 C233.70876062 248.56958536 232.74962705 248.56717028 231.76142883 248.56468201 C230.73515717 248.56991869 229.70888551 248.57515536 228.65151471 248.58055073 C225.20782274 248.59556914 221.76427913 248.5962563 218.32055664 248.59692383 C215.8533147 248.60454413 213.38607515 248.61297141 210.9188385 248.62214661 C204.21205461 248.64411286 197.50533047 248.6529154 190.79851937 248.65797305 C186.60815413 248.66123255 182.41779804 248.66775661 178.22743797 248.67497444 C166.61816485 248.69453886 155.00890023 248.7109437 143.39960957 248.71385098 C142.28563935 248.71413233 142.28563935 248.71413233 141.14916469 248.71441937 C139.64372933 248.71478561 138.13829397 248.71514931 136.63285861 248.71551048 C135.88558998 248.71569329 135.13832134 248.7158761 134.3684082 248.71606445 C133.24613174 248.71633528 133.24613174 248.71633528 132.10118302 248.71661157 C119.98343959 248.72015168 107.86587405 248.74716444 95.74819229 248.78456234 C83.29749956 248.82267941 70.84689501 248.8420087 58.39614266 248.84231049 C51.40938998 248.84289433 44.42284945 248.85133904 37.4361515 248.88030815 C30.86236517 248.90744039 24.28892502 248.90869796 17.71507835 248.89265251 C15.30526693 248.89083733 12.89543141 248.89753483 10.485672 248.91347122 C7.18931903 248.93393782 3.89443382 248.92337483 0.59809875 248.90525818 C-0.82387118 248.92505813 -0.82387118 248.92505813 -2.27456778 248.94525808 C-10.44301039 248.84310136 -16.84571012 246.15312317 -23.01269531 240.79052734 C-23.71394531 239.96552734 -24.41519531 239.14052734 -25.13769531 238.29052734 C-25.83894531 237.56865234 -26.54019531 236.84677734 -27.26269531 236.10302734 C-33.61023157 226.58172295 -32.56480967 215.18614354 -32.52587891 204.22998047 C-32.52994901 202.30386559 -32.53529335 200.37775305 -32.54180908 198.4516449 C-32.55543624 193.24299535 -32.55020305 188.03452493 -32.54067183 182.82587242 C-32.53305136 177.36262928 -32.54012746 171.899401 -32.54483032 166.43615723 C-32.55028093 157.26339987 -32.5431145 148.09071508 -32.52880859 138.91796875 C-32.51248346 128.32854982 -32.51777245 117.7393042 -32.53428781 107.14988947 C-32.54792248 98.04131164 -32.54981265 88.93278585 -32.5419718 79.82420111 C-32.53730619 74.39136256 -32.53663982 68.95860535 -32.54658127 63.52577209 C-32.55527749 58.41701752 -32.54918057 53.30848538 -32.5318985 48.19975471 C-32.52794783 46.3301588 -32.52904325 44.46054402 -32.53568649 42.59095573 C-32.61539426 17.8710213 -32.61539426 17.8710213 -23.13769531 8.29052734 C-16.04375168 2.47581945 -9.23451404 0.05805796 0 0 Z M30.86230469 81.29052734 C21.40601271 93.63624187 17.86578421 106.88005003 18.86230469 122.29052734 C20.08751655 129.22738864 22.59649467 135.09674972 25.86230469 141.29052734 C25.86230469 141.95052734 25.86230469 142.61052734 25.86230469 143.29052734 C24.95609375 143.57025391 24.04988281 143.84998047 23.11621094 144.13818359 C15.15588923 146.75792968 9.11603563 149.53809748 2.86230469 155.29052734 C1.94384766 156.03882813 1.94384766 156.03882813 1.00683594 156.80224609 C-6.87677443 163.71128211 -11.6870495 174.67878536 -12.92675781 184.95458984 C-14.24933925 205.56495121 -14.24933925 205.56495121 -4.75878906 223.28271484 C2.82062396 229.08870336 10.87314206 229.87373027 20.14575195 229.79223633 C21.92579117 229.80034081 21.92579117 229.80034081 23.74179077 229.80860901 C26.96714768 229.81890579 30.19182633 229.81147405 33.41713834 229.79489779 C36.80950307 229.78093977 40.20183985 229.78751939 43.59422302 229.79103088 C49.28743079 229.79372422 54.98042666 229.78033213 60.67358398 229.75708008 C67.23568573 229.73046293 73.79743378 229.72873052 80.35957104 229.74046844 C86.69956223 229.75128343 93.03942671 229.74503092 99.37940788 229.73091316 C102.06539885 229.72518678 104.75129607 229.72520939 107.43728828 229.72997856 C111.19449071 229.73289931 114.95112185 229.71634161 118.70825195 229.69458008 C120.36136131 229.70133255 120.36136131 229.70133255 122.04786682 229.70822144 C131.07632959 229.62164291 138.59379374 228.27966053 145.35839844 221.97021484 C154.24367249 212.04640226 152.39649159 198.78482095 152.03710938 186.34521484 C151.31661107 173.75460756 145.08212292 163.00828221 136.04980469 154.41552734 C129.06798869 148.49316749 121.79042835 145.1092192 112.86230469 143.29052734 C113.1884375 142.65888672 113.51457031 142.02724609 113.85058594 141.37646484 C121.2641269 126.19948128 122.4242486 112.38350592 117.08105469 96.39208984 C111.61484713 82.4812924 102.16562574 73.97255723 88.80761719 67.88818359 C83.91898293 65.81467982 79.15887341 64.684487 73.86230469 64.29052734 C71.97511719 64.13583984 71.97511719 64.13583984 70.04980469 63.97802734 C55.17841594 64.49502859 40.87665317 70.15919384 30.86230469 81.29052734 Z M180.17456055 176.82763672 C179.74151611 177.64039063 179.30847168 178.45314453 178.86230469 179.29052734 C180.72796957 182.91846732 180.72796957 182.91846732 183.86230469 185.29052734 C185.35226979 185.39526438 186.8467422 185.43919964 188.34033203 185.45166016 C189.7322023 185.46607147 189.7322023 185.46607147 191.15219116 185.48077393 C192.157388 185.4850238 193.16258484 185.48927368 194.19824219 185.49365234 C195.74458847 185.50220245 195.74458847 185.50220245 197.32217407 185.51092529 C199.50611339 185.5203827 201.69006703 185.52691221 203.87402344 185.53076172 C207.21672437 185.54046759 210.55881065 185.57148449 213.90136719 185.60302734 C216.0211552 185.60955723 218.14094761 185.61480776 220.26074219 185.61865234 C221.26189056 185.63099915 222.26303894 185.64334595 223.29452515 185.65606689 C224.6958519 185.65156525 224.6958519 185.65156525 226.12548828 185.64697266 C226.94552338 185.65061829 227.76555847 185.65426392 228.61044312 185.65802002 C231.42305496 185.19901567 232.8035524 184.23355171 234.86230469 182.29052734 C235.44563802 179.79052734 235.44563802 179.79052734 234.86230469 177.29052734 C233.2396955 175.13830409 232.34707841 174.37767071 229.66822815 173.89611816 C228.81647507 173.88769897 227.96472198 173.87927979 227.0871582 173.87060547 C226.11927872 173.8546936 225.15139923 173.83878174 224.15419006 173.8223877 C223.11040695 173.82218628 222.06662384 173.82198486 220.99121094 173.82177734 C219.91733627 173.81416382 218.84346161 173.80655029 217.73704529 173.79870605 C215.46493862 173.78789588 213.19278223 173.78505565 210.9206543 173.78955078 C207.44137806 173.79052271 203.96430899 173.74891718 200.48535156 173.70458984 C198.27897596 173.69938275 196.07259268 173.69669465 193.86621094 173.69677734 C192.82445206 173.68038208 191.78269318 173.66398682 190.70936584 173.64709473 C184.84387942 173.58125961 184.84387942 173.58125961 180.17456055 176.82763672 Z M179.86230469 199.29052734 C178.85752432 201.14276404 178.85752432 201.14276404 178.86230469 203.29052734 C180.61968459 206.36594217 181.44176462 207.15034732 184.86230469 208.29052734 C186.32384484 208.39136855 187.78943613 208.43879783 189.25439453 208.45166016 C190.13896332 208.4612677 191.0235321 208.47087524 191.93490601 208.48077393 C192.88805695 208.4850238 193.84120789 208.48927368 194.82324219 208.49365234 C195.805961 208.49935242 196.78867981 208.50505249 197.80117798 208.51092529 C199.88078739 208.52037253 201.96041176 208.52690818 204.04003906 208.53076172 C207.2180395 208.5404685 210.39539351 208.5714952 213.57324219 208.60302734 C215.59407168 208.60955746 217.6149058 208.6148079 219.63574219 208.61865234 C221.0593959 208.63717255 221.0593959 208.63717255 222.5118103 208.65606689 C227.46518869 208.63938037 230.81822211 208.50584359 234.86230469 205.29052734 C234.60669145 202.94740604 234.26959696 200.61209331 233.86230469 198.29052734 C231.44105074 197.07990037 229.8898602 197.15729542 227.18481445 197.14526367 C226.21363174 197.13888382 225.24244904 197.13250397 224.24183655 197.12593079 C223.1897551 197.12481796 222.13767365 197.12370514 221.05371094 197.12255859 C219.97604965 197.11923019 218.89838837 197.11590179 217.78807068 197.11247253 C215.50577217 197.10740317 213.22346624 197.10506421 210.94116211 197.10522461 C207.44274733 197.10303856 203.94464798 197.08488394 200.44628906 197.06591797 C198.23209744 197.06298402 196.01790431 197.06099923 193.80371094 197.06005859 C192.75365372 197.05287308 191.7035965 197.04568756 190.62171936 197.0382843 C189.64738449 197.04136093 188.67304962 197.04443756 187.66918945 197.04760742 C186.38251122 197.04546989 186.38251122 197.04546989 185.06983948 197.04328918 C182.57315718 197.15204859 182.57315718 197.15204859 179.86230469 199.29052734 Z " fill="#B100FF" transform="translate(140.1376953125,159.70947265625)"/>
<path d="M0 0 C0.96594086 0.00054382 1.93188171 0.00108765 2.92709351 0.00164795 C18.82427694 0.04267209 34.1070568 0.96742637 49.6875 4.375 C51.16669922 4.69645996 51.16669922 4.69645996 52.67578125 5.02441406 C101.53665776 16.02291411 149.39188546 42.47830381 181.6875 81.375 C182.46996094 82.24640625 183.25242187 83.1178125 184.05859375 84.015625 C213.00993644 116.51674278 232.16563537 159.5009304 238.6875 202.375 C238.86265137 203.49511475 239.03780273 204.61522949 239.21826172 205.76928711 C240.8222463 217.07945314 241.08675288 228.27504914 241.0625 239.6875 C241.06168427 241.13641129 241.06168427 241.13641129 241.06085205 242.61459351 C240.91942085 297.42031418 222.15513018 351.27730465 186.6875 393.375 C186.24293457 393.90834961 185.79836914 394.44169922 185.34033203 394.99121094 C176.46755486 405.62194229 167.31894347 415.5049157 156.45703125 424.1640625 C154.64230999 425.61276804 152.84694774 427.08613988 151.07421875 428.5859375 C109.76426566 463.46989788 54.93725882 480.86382648 1.375 480.75 C0.40905914 480.74945618 -0.55688171 480.74891235 -1.55209351 480.74835205 C-17.44927694 480.70732791 -32.7320568 479.78257363 -48.3125 476.375 C-49.29863281 476.16069336 -50.28476563 475.94638672 -51.30078125 475.72558594 C-92.44383101 466.46435554 -130.42236543 447.15013436 -161.3125 418.375 C-162.70394666 417.16161781 -164.09958639 415.95302197 -165.5 414.75 C-171.99360756 409.06159978 -177.58778833 402.98521623 -182.99609375 396.25 C-184.48745378 394.3990034 -185.99911746 392.56409151 -187.53515625 390.75 C-198.24374514 378.0583391 -206.60569543 364.03942695 -214.3125 349.375 C-214.66022461 348.7243457 -215.00794922 348.07369141 -215.36621094 347.40332031 C-226.53507442 326.25330663 -233.61844915 301.92313867 -237.3125 278.375 C-237.49506348 277.21943604 -237.67762695 276.06387207 -237.86572266 274.87329102 C-239.46605387 263.60328263 -239.71166633 252.4342251 -239.6875 241.0625 C-239.68695618 240.09655914 -239.68641235 239.13061829 -239.68585205 238.13540649 C-239.64482791 222.23822306 -238.72007363 206.9554432 -235.3125 191.375 C-235.09819336 190.38886719 -234.88388672 189.40273437 -234.66308594 188.38671875 C-225.40185554 147.24366899 -206.08763436 109.26513457 -177.3125 78.375 C-176.09911781 76.98355334 -174.89052197 75.58791361 -173.6875 74.1875 C-139.73622792 35.31914714 -87.79834506 10.21606455 -37.3125 2.375 C-36.18803467 2.19839844 -35.06356934 2.02179687 -33.9050293 1.83984375 C-22.59999807 0.2374094 -11.40708054 -0.02424147 0 0 Z M-133.3125 57.375 C-133.90047363 57.80748047 -134.48844727 58.23996094 -135.09423828 58.68554688 C-183.58446425 94.60423278 -214.33277416 148.32048603 -224.0234375 207.5859375 C-225.30992632 216.47949062 -225.93482766 225.40297899 -226.3125 234.375 C-226.35503906 235.38304687 -226.39757812 236.39109375 -226.44140625 237.4296875 C-227.40894673 286.06472246 -211.30341738 335.40411574 -182.3125 374.375 C-181.88001953 374.96297363 -181.44753906 375.55094727 -181.00195312 376.15673828 C-145.10615235 424.61606932 -91.33096392 455.48624707 -32.06640625 465.0859375 C27.32197825 473.61413423 88.43839644 458.00790917 136.44384766 422.10058594 C141.54240086 418.17930476 146.41662297 414.02392876 151.19287109 409.71826172 C152.621848 408.43400316 154.07028663 407.17149881 155.51953125 405.91015625 C159.90277365 402.06578323 163.99291308 398.15749651 167.73828125 393.6875 C169.22132218 391.92806066 170.74773891 390.2050812 172.29296875 388.5 C199.1089822 358.70845525 215.83461606 321.41523998 223.6875 282.375 C223.86007324 281.52019043 224.03264648 280.66538086 224.21044922 279.78466797 C234.99225016 224.07313305 221.93251758 163.07125264 190.55908203 115.93286133 C188.33467981 112.69682727 186.03114297 109.52542941 183.6875 106.375 C183.25501953 105.78702637 182.82253906 105.19905273 182.37695312 104.59326172 C146.48115235 56.13393068 92.70596392 25.26375293 33.44140625 15.6640625 C-24.98534243 7.27395707 -85.85991302 22.07444025 -133.3125 57.375 Z " fill="#B000FF" transform="translate(255.3125,15.625)"/>
<path d="M0 0 C0.76548102 -0.00523668 1.53096203 -0.01047336 2.31963944 -0.01586872 C4.88666866 -0.0308798 7.45349874 -0.03157412 10.02056885 -0.03224182 C11.86037533 -0.03986265 13.70017863 -0.04829001 15.53997803 -0.0574646 C20.54012498 -0.07942604 25.54021077 -0.0882109 30.54040051 -0.09329104 C33.66488306 -0.09693314 36.78934955 -0.10317249 39.91382599 -0.11029243 C50.81595057 -0.13479415 61.71802752 -0.14784007 72.62017822 -0.15138245 C82.77901193 -0.15501668 92.93754331 -0.1849022 103.09628463 -0.22678703 C111.81999552 -0.26149291 120.54360626 -0.27693095 129.26738572 -0.27762848 C134.47678187 -0.27842129 139.68587024 -0.28716173 144.89519501 -0.31562614 C149.79712114 -0.34181124 154.69848443 -0.34400943 159.60044861 -0.3279705 C161.39671812 -0.32615628 163.19302001 -0.33284436 164.98921967 -0.34878922 C182.54512622 -0.49509496 182.54512622 -0.49509496 188.43560791 5.27415466 C192.93886546 9.72597837 195.48921646 14.02374747 195.67611694 20.40606689 C195.68189014 22.06367094 195.67665369 23.72133597 195.66265869 25.37889099 C195.66295074 26.28670319 195.6632428 27.19451538 195.6635437 28.12983704 C195.66215349 31.1220515 195.64660674 34.11401509 195.63092041 37.10618591 C195.62718918 39.18412134 195.62434273 41.26205852 195.62234497 43.33999634 C195.61471716 48.80296201 195.59507591 54.26582094 195.57293701 59.72874451 C195.55246028 65.3057155 195.54333934 70.88270377 195.53326416 76.45970154 C195.51182928 87.39789941 195.47770355 98.33601815 195.43560791 109.27415466 C182.27481153 109.43650313 169.11425423 109.56080505 155.95265961 109.63683987 C149.84082107 109.67333721 143.72966873 109.7228256 137.6182251 109.80223083 C131.71781187 109.87841248 125.81805771 109.92017127 119.91719055 109.93829536 C117.66849901 109.95120743 115.41984266 109.97642247 113.1714325 110.01426506 C110.01586608 110.06525292 106.86300582 110.07207118 103.70709229 110.0688324 C102.3195726 110.10658279 102.3195726 110.10658279 100.90402222 110.14509583 C94.69098723 110.07631644 91.59671874 108.49638312 87.18146133 104.13263893 C86.6053297 103.51933912 86.02919807 102.90603931 85.43560791 102.27415466 C84.21799029 101.06102332 82.99967006 99.84859636 81.78033447 98.63719177 C80.54366123 97.36053531 79.30902648 96.08190165 78.07623291 94.80149841 C76.69940104 93.39254019 75.32177186 91.98436073 73.94342041 90.57688904 C71.81230073 88.39653314 69.6861519 86.2122206 67.57330322 84.0141449 C53.61900836 69.174138 53.61900836 69.174138 34.67675781 63.11593628 C33.09124115 63.09261986 33.09124115 63.09261986 31.47369385 63.0688324 C30.27275085 63.04888718 29.07180786 63.02894196 27.83447266 63.00839233 C26.54269104 62.99167984 25.25090942 62.97496735 23.91998291 62.95774841 C22.5804787 62.93716503 21.24098079 62.9161682 19.90148926 62.89477539 C16.3834545 62.83969758 12.86536251 62.7902256 9.347229 62.7419281 C5.75424127 62.69160842 2.16133618 62.6359771 -1.43157959 62.58079529 C-8.47577864 62.47338866 -15.52005189 62.37190517 -22.56439209 62.27415466 C-22.66624486 55.86967126 -22.73604667 49.46539859 -22.78411865 43.06028748 C-22.80416973 40.88377578 -22.8314178 38.70731752 -22.8661499 36.5309906 C-22.91495421 33.39316074 -22.93742647 30.25604631 -22.95501709 27.11790466 C-22.97566223 26.1530011 -22.99630737 25.18809753 -23.01757812 24.19395447 C-23.01992233 17.05287883 -21.56074941 11.67791145 -16.78314209 6.25071716 C-16.21595459 5.80470154 -15.64876709 5.35868591 -15.06439209 4.89915466 C-14.49720459 4.43767029 -13.93001709 3.97618591 -13.34564209 3.50071716 C-8.90473098 0.44272136 -5.34333688 -0.01806382 0 0 Z " fill="#B200FF" transform="translate(169.56439208984375,87.72584533691406)"/>
<path d="M0 0 C0.69609375 0.50917969 1.3921875 1.01835937 2.109375 1.54296875 C13.14248966 9.14761141 25.352993 12.46427521 38.62890625 10.04296875 C47.79822181 8.06972856 55.62346473 5.20386781 62.87109375 -0.98828125 C64.859375 -2.26953125 64.859375 -2.26953125 66.83203125 -2.265625 C69.18869949 -1.63571181 71.52794668 -0.98853662 73.859375 -0.26953125 C74.75527344 -0.00914062 75.65117187 0.25125 76.57421875 0.51953125 C86.10436758 3.59377281 93.43480419 8.64785074 98.640625 17.32421875 C102.62379843 25.18843296 103.1398128 32.7897522 103.234375 41.48046875 C103.24839355 42.37991211 103.26241211 43.27935547 103.27685547 44.20605469 C103.22714356 51.08159396 102.20870166 56.07942791 97.50317383 61.38926697 C92.86364239 65.08782077 87.37554142 64.41934566 81.70703125 64.36157227 C80.48684296 64.36872757 79.26665466 64.37588287 78.00949097 64.383255 C74.67427739 64.39723913 71.34062104 64.388863 68.00553513 64.36916471 C64.50897087 64.35273672 61.01245579 64.36159684 57.51586914 64.36668396 C51.64488965 64.37120033 45.77422923 64.35536381 39.90332031 64.32739258 C33.12418001 64.29534239 26.34561505 64.29535768 19.56643391 64.31260735 C13.03419625 64.32849366 6.5021687 64.32172546 -0.03005981 64.30467033 C-2.80508039 64.29781346 -5.57993184 64.29881813 -8.35494995 64.30621529 C-12.23294863 64.31532765 -16.11036051 64.29129744 -19.98828125 64.26391602 C-21.13547638 64.27044189 -22.28267151 64.27696777 -23.46463013 64.28369141 C-29.65144561 64.20940682 -33.46605417 63.93731002 -38.140625 59.73046875 C-42.2999381 54.19937375 -41.61929677 47.66413811 -41.578125 41.04296875 C-41.59810547 39.92212891 -41.61808594 38.80128906 -41.63867188 37.64648438 C-41.63197698 26.11118552 -38.83891145 17.32244319 -30.765625 8.95703125 C-26.33647435 5.2001624 -21.4945955 2.89772179 -16.140625 0.73046875 C-15.28597656 0.37984375 -14.43132812 0.02921875 -13.55078125 -0.33203125 C-8.44577533 -2.23472897 -4.93610331 -2.92743353 0 0 Z " fill="#A600FF" transform="translate(179.140625,314.26953125)"/>
<path d="M0 0 C0.77601563 0.42410156 1.55203125 0.84820312 2.3515625 1.28515625 C11.7569744 6.93154901 17.23570022 15.50302483 20.58203125 25.7890625 C22.94552079 38.2912595 20.65505954 49.57501264 13.875 60.25 C7.78073113 68.41891359 -1.03555978 73.88708859 -11 76 C-22.87050867 77.17374041 -33.89828482 75.98945712 -43.8125 68.8125 C-53.04761526 60.93253752 -58.25477272 51.74999769 -59.9375 39.6875 C-60.62707225 27.61998566 -56.78046305 17.42567176 -49.4765625 8.04296875 C-37.79660302 -5.03288833 -15.20023835 -8.80735832 0 0 Z " fill="#A600FF" transform="translate(229,239)"/>
</svg>
