<?xml version="1.0" standalone="no"?>
<!DOCTYPE svg PUBLIC "-//W3C//DTD SVG 20010904//EN"
 "http://www.w3.org/TR/2001/REC-SVG-20010904/DTD/svg10.dtd">
<svg version="1.0" xmlns="http://www.w3.org/2000/svg"
 width="464.000000pt" height="108.000000pt" viewBox="0 0 464.000000 108.000000"
 preserveAspectRatio="xMidYMid meet">

<g transform="translate(0.000000,108.000000) scale(0.100000,-0.100000)"
fill="#000000" stroke="none">
<path d="M2357 1060 c-129 -33 -197 -121 -197 -257 0 -139 61 -200 270 -268
115 -38 171 -67 208 -109 37 -42 46 -85 39 -172 -12 -149 -125 -235 -292 -222
-138 12 -225 110 -225 255 0 32 -4 43 -15 43 -20 0 -20 -69 0 -137 21 -72 66
-128 127 -160 46 -24 65 -27 143 -28 79 0 97 3 147 28 100 49 149 135 150 260
1 139 -70 206 -300 281 -101 34 -169 78 -200 131 -19 33 -22 52 -20 111 6 142
91 220 238 218 138 -1 217 -68 230 -194 4 -40 9 -55 20 -55 18 0 17 68 -1 124
-16 47 -76 111 -126 133 -50 22 -144 31 -196 18z"/>
<path d="M225 1028 c-37 -166 -38 -182 -15 -138 6 11 38 52 71 90 l60 70 -55
0 c-50 0 -56 -2 -61 -22z"/>
<path d="M333 987 c-86 -90 -159 -205 -174 -275 -6 -31 -30 -148 -53 -260
l-42 -203 17 -68 c10 -38 28 -90 41 -117 l23 -49 78 -3 c71 -3 95 6 67 23 -16
10 -66 113 -83 171 -74 250 33 563 269 783 l65 61 -74 0 -74 0 -60 -63z"/>
<path d="M500 964 c-188 -180 -281 -376 -281 -592 0 -134 37 -249 106 -331 26
-30 28 -31 115 -31 l89 0 -56 52 c-99 94 -143 200 -143 344 0 104 12 156 60
259 65 141 187 272 330 353 l55 32 -92 0 -92 0 -91 -86z"/>
<path d="M805 1025 c-76 -32 -176 -100 -240 -164 l-49 -51 48 0 c43 0 53 5 98
45 59 53 167 109 243 126 31 7 55 18 55 25 0 7 3 19 6 28 10 26 -89 21 -161
-9z"/>
<path d="M1108 1021 c-4 -27 -1 -30 47 -45 28 -9 73 -30 98 -47 49 -32 123
-125 133 -166 7 -28 24 -30 24 -4 0 33 11 51 31 51 27 0 24 10 -20 77 -69 102
-163 163 -254 163 -53 0 -55 -1 -59 -29z"/>
<path d="M1336 1022 c55 -41 109 -103 139 -162 l25 -50 61 0 c58 0 60 1 54 23
-15 48 -66 144 -95 180 l-31 37 -96 0 -96 0 39 -28z"/>
<path d="M1540 1046 c0 -2 15 -27 34 -55 31 -46 76 -147 76 -171 0 -6 29 -10
65 -10 45 0 65 4 65 13 0 26 -29 118 -53 171 l-26 56 -80 0 c-45 0 -81 -2 -81
-4z"/>
<path d="M1743 1038 c4 -7 19 -44 34 -82 l28 -69 11 49 c6 27 14 64 17 82 l7
32 -51 0 c-37 0 -50 -3 -46 -12z"/>
<path d="M3160 535 l0 -515 246 0 c192 0 245 3 242 13 -4 9 -61 13 -231 15
l-227 2 0 245 0 245 205 0 c176 0 205 2 205 15 0 13 -29 15 -205 15 l-205 0 0
225 0 225 225 0 c193 0 225 2 225 15 0 13 -33 15 -240 15 l-240 0 0 -515z"/>
<path d="M4020 1035 c0 -13 22 -15 140 -15 l140 0 0 -500 c0 -438 2 -500 15
-500 13 0 15 62 15 500 l0 500 140 0 c118 0 140 2 140 15 0 13 -39 15 -295 15
-256 0 -295 -2 -295 -15z"/>
<path d="M878 941 c-64 -21 -123 -53 -182 -100 l-39 -31 50 0 c35 0 65 8 104
29 30 16 69 32 86 36 37 7 38 8 48 53 8 37 8 37 -67 13z"/>
<path d="M1097 953 c-3 -4 -8 -22 -11 -39 -7 -29 -5 -32 38 -48 57 -22 122
-84 149 -144 17 -37 22 -66 22 -132 0 -74 -4 -93 -31 -150 -60 -126 -165 -225
-285 -267 -39 -14 -50 -23 -55 -46 -3 -16 -3 -31 0 -34 11 -11 132 40 198 84
165 108 266 292 256 462 -6 92 -30 152 -88 215 -51 55 -180 121 -193 99z"/>
<path d="M877 835 c-55 -19 -56 -25 -5 -25 37 0 47 4 51 20 6 23 4 24 -46 5z"/>
<path d="M1066 818 c-4 -18 -2 -34 3 -36 34 -11 92 -67 112 -109 64 -130 -16
-310 -172 -388 -30 -15 -55 -28 -56 -29 -1 0 -5 -14 -9 -30 -7 -28 -6 -29 22
-22 80 20 193 114 248 209 91 154 59 328 -74 410 -52 31 -67 30 -74 -5z"/>
<path d="M470 745 c-170 -247 -137 -561 73 -700 52 -35 57 -36 133 -33 65 2
79 6 82 20 2 12 -8 20 -40 28 -88 24 -168 82 -214 155 -26 40 -33 45 -66 45
-43 0 -44 1 -22 85 9 33 20 89 25 124 6 35 21 92 33 127 13 35 20 65 15 66 -4
2 -2 31 5 66 8 34 12 62 10 62 -2 0 -17 -20 -34 -45z"/>
<path d="M1046 724 c-5 -20 0 -34 27 -63 75 -83 49 -208 -58 -283 -42 -30 -64
-62 -51 -75 10 -10 94 47 130 89 60 69 79 119 74 192 -4 71 -35 124 -88 151
-27 14 -28 14 -34 -11z"/>
<path d="M520 620 c-21 -41 -50 -149 -50 -187 0 -20 5 -23 39 -23 l38 0 6 59
c6 51 18 94 52 174 6 14 2 17 -29 17 -31 0 -38 -5 -56 -40z"/>
<path d="M625 606 c-26 -52 -44 -143 -37 -178 2 -12 13 -18 32 -18 27 0 28 1
32 68 2 50 11 83 31 121 15 29 27 55 27 57 0 2 -13 4 -29 4 -26 0 -33 -7 -56
-54z"/>
<path d="M748 643 c-39 -43 -63 -108 -63 -168 0 -60 0 -60 31 -63 l32 -3 -5
45 c-8 66 3 108 43 160 l35 46 -29 0 c-16 0 -36 -8 -44 -17z"/>
<path d="M840 624 c-17 -15 -40 -44 -50 -65 -33 -65 -22 -149 20 -149 15 0 21
12 30 58 7 31 18 85 25 120 7 34 11 62 10 62 -2 0 -18 -12 -35 -26z"/>
<path d="M1020 593 c-7 -32 -18 -87 -25 -123 -8 -36 -12 -67 -9 -69 7 -7 64
51 80 81 8 15 14 45 14 68 0 42 -23 100 -40 100 -5 0 -14 -26 -20 -57z"/>
<path d="M1417 613 c-4 -3 -7 -22 -7 -42 0 -31 -28 -122 -54 -183 -7 -16 -3
-18 32 -18 38 0 40 2 60 48 27 64 33 85 41 148 l8 54 -37 0 c-20 0 -40 -3 -43
-7z"/>
<path d="M1521 554 c-7 -37 -21 -90 -32 -118 -10 -28 -19 -54 -19 -58 0 -5 23
-8 51 -8 48 0 51 1 65 35 15 36 37 121 48 183 l6 32 -54 0 -54 0 -11 -66z"/>
<path d="M1661 556 c-10 -59 -29 -128 -46 -168 -6 -15 -1 -18 34 -18 34 0 41
4 46 23 7 30 45 218 45 223 0 2 -15 4 -34 4 -34 0 -34 0 -45 -64z"/>
<path d="M1279 275 c-79 -97 -220 -190 -319 -210 -41 -8 -60 -22 -60 -41 0
-20 117 -18 166 2 52 21 162 95 196 131 17 18 32 51 42 93 8 36 14 66 12 67
-1 1 -18 -18 -37 -42z"/>
<path d="M520 250 c0 -18 82 -100 124 -125 23 -13 60 -28 83 -33 38 -9 42 -8
47 12 12 43 6 53 -37 70 -24 9 -62 32 -85 51 -33 29 -48 35 -86 35 -25 0 -46
-5 -46 -10z"/>
<path d="M680 246 c6 -8 32 -25 57 -37 49 -24 63 -18 63 29 0 21 -4 22 -66 22
-57 0 -65 -2 -54 -14z"/>
<path d="M29 85 l-15 -75 47 0 47 0 -30 73 c-17 39 -31 73 -32 74 -1 1 -9 -31
-17 -72z"/>
<path d="M1243 96 c-15 -13 -50 -37 -78 -55 l-50 -31 70 2 70 3 11 53 c7 28
10 52 9 52 -2 0 -16 -11 -32 -24z"/>
</g>
</svg>
